<?xml version="1.0" encoding="utf-8"?>
<!-- Generator: Adobe Illustrator 28.0.0, SVG Export Plug-In . SVG Version: 6.00 Build 0)  -->
<svg version="1.1" id="Layer_1" xmlns="http://www.w3.org/2000/svg" xmlns:xlink="http://www.w3.org/1999/xlink" x="0px" y="0px"
	 viewBox="0 0 1000 1000" style="enable-background:new 0 0 1000 1000;" xml:space="preserve">
<style type="text/css">
	.st0{fill:url(#SVGID_1_);}
	.st1{fill:url(#SVGID_00000139978106461813227120000013840852717544525502_);}
	.st2{fill:url(#SVGID_00000045617797308207153940000000553958564974028458_);}
	.st3{fill:#529DCE;}
	.st4{fill:url(#SVGID_00000097502636671103781130000005030945820940517812_);}
	.st5{fill:url(#SVGID_00000083803535983724952000000005362192891729852590_);}
	.st6{fill:url(#SVGID_00000070100139754496067540000012750326925175580297_);}
	.st7{fill:url(#SVGID_00000036213566975114447230000014090597680045248683_);}
	.st8{fill:url(#SVGID_00000007414687628891377390000010619342813296260527_);}
	.st9{fill:url(#SVGID_00000012461271441900341990000008022213422834632368_);}
	.st10{fill:url(#SVGID_00000031176472448986199240000004837589030549376914_);}
	.st11{fill:url(#SVGID_00000020381729352304039290000018406744799409467797_);}
	.st12{fill:url(#SVGID_00000143589169797266007760000014867863186615705245_);}
	.st13{fill:url(#SVGID_00000093175978042360935010000006895058228129552316_);}
	.st14{fill:url(#SVGID_00000063621916827795450870000013601408500543807386_);}
	.st15{fill:url(#SVGID_00000131360316549042256810000000065948391140711596_);}
	.st16{fill:url(#SVGID_00000077285217635192892470000018137983440395087779_);}
	.st17{fill:url(#SVGID_00000015338439864015927230000005718283482871342014_);}
	.st18{fill:url(#SVGID_00000134941793993070605940000015428574700910925978_);}
	.st19{fill:url(#SVGID_00000019654759928538776070000001869583715142282912_);}
</style>
<g>
	<linearGradient id="SVGID_1_" gradientUnits="userSpaceOnUse" x1="402.174" y1="264.9712" x2="538.8614" y2="775.0957">
		<stop  offset="1.916933e-07" style="stop-color:#E77260"/>
		<stop  offset="1" style="stop-color:#AC1B09"/>
	</linearGradient>
	<path class="st0" d="M726.99,687.74l-47.04,49.55l-204.5-197.2l-53.59-51.68c0,0,64.59,4.55,88.55-7.41
		c23.13-11.55,39.01-35.45,39.01-63.07c0-38.92-31.56-70.48-70.48-70.48H403.2v427h-76.04V285.07h163.53
		c46.59,0,87.37,24.9,109.75,62.12c11.56,19.23,18.21,41.76,18.21,65.84c0,47.2-25.55,88.43-63.58,110.61L726.99,687.74z"/>
	
		<linearGradient id="SVGID_00000086649493502541885680000008934090823727734149_" gradientUnits="userSpaceOnUse" x1="498.957" y1="152.8163" x2="498.957" y2="767.5815">
		<stop  offset="3.833867e-07" style="stop-color:#64AED7"/>
		<stop  offset="1" style="stop-color:#19405F"/>
	</linearGradient>
	<path style="fill:url(#SVGID_00000086649493502541885680000008934090823727734149_);" d="M495.64,451.49
		c-5.2,2.6-10.82,3.92-16.7,3.92H436.2v-74.96h42.74c20.67,0,37.48,16.81,37.48,37.48C516.42,432.23,508.47,445.08,495.64,451.49z
		 M185.12,504.99c59.24-18.65,95.47,11.44,109.04,26.31V315.26C210.63,313.51,185.12,504.99,185.12,504.99z M710.17,427.63
		c-3.64-17.24-12.13-33.09-24.12-46l-14.87-16.01c-38.83-36.46-52.89-75.14-57.7-102.47c-3.73-21.18-17.77-39.25-37.51-47.78
		c-51.9-22.44-66.5-62.54-66.5-62.54s-152.96-3.62-215.31,99.24h196.53c28.28,0,56.1,7.45,80.47,21.53
		c23.6,13.65,43.51,33.21,57.56,56.58c15,24.96,22.93,53.6,22.93,82.85c0,28.65-7.63,56.8-22.07,81.39
		c-6.76,11.51-14.92,22.12-24.24,31.58l95.4,91.06c19.71,18.82,51.87,13.47,64.63-10.61c31.18-58.85,47.43-121.54,47.43-121.54
		C736.79,494.61,715.82,454.35,710.17,427.63z M436.2,716.95c0,26.2,20.19,48.13,46.32,49.91c71.92,4.91,129.78-16.57,152.76-26.8
		L436.2,548.08V716.95z"/>
	
		<linearGradient id="SVGID_00000036216818981909450420000016575410120214836609_" gradientUnits="userSpaceOnUse" x1="162.8379" y1="703.3445" x2="271.5508" y2="703.3445">
		<stop  offset="1.916933e-07" style="stop-color:#E77260"/>
		<stop  offset="1" style="stop-color:#AC1B09"/>
	</linearGradient>
	<circle style="fill:url(#SVGID_00000036216818981909450420000016575410120214836609_);" cx="217.19" cy="703.34" r="54.36"/>
	<circle class="st3" cx="87.45" cy="442.73" r="21.86"/>
	
		<linearGradient id="SVGID_00000080886501697090008050000012945386988425574019_" gradientUnits="userSpaceOnUse" x1="136.0458" y1="270.8099" x2="192.125" y2="270.8099">
		<stop  offset="4.504793e-07" style="stop-color:#284660"/>
		<stop  offset="1" style="stop-color:#0C222F"/>
	</linearGradient>
	<circle style="fill:url(#SVGID_00000080886501697090008050000012945386988425574019_);" cx="164.09" cy="270.81" r="28.04"/>
	<circle class="st3" cx="199.73" cy="193.37" r="14.17"/>
	
		<linearGradient id="SVGID_00000080907259946134417670000005907397697874739328_" gradientUnits="userSpaceOnUse" x1="825.6299" y1="290.295" x2="914.026" y2="290.295">
		<stop  offset="4.504793e-07" style="stop-color:#284660"/>
		<stop  offset="1" style="stop-color:#0C222F"/>
	</linearGradient>
	<circle style="fill:url(#SVGID_00000080907259946134417670000005907397697874739328_);" cx="869.83" cy="290.3" r="44.2"/>
	
		<linearGradient id="SVGID_00000157276414183759355680000009743024898338803845_" gradientUnits="userSpaceOnUse" x1="899.2081" y1="207.2289" x2="934.4097" y2="207.2289">
		<stop  offset="4.504793e-07" style="stop-color:#284660"/>
		<stop  offset="1" style="stop-color:#0C222F"/>
	</linearGradient>
	<circle style="fill:url(#SVGID_00000157276414183759355680000009743024898338803845_);" cx="916.81" cy="207.23" r="17.6"/>
	
		<linearGradient id="SVGID_00000178909027665075386990000003344177370622217102_" gradientUnits="userSpaceOnUse" x1="851.4576" y1="412.1058" x2="911.7568" y2="412.1058">
		<stop  offset="4.504793e-07" style="stop-color:#284660"/>
		<stop  offset="1" style="stop-color:#0C222F"/>
	</linearGradient>
	<circle style="fill:url(#SVGID_00000178909027665075386990000003344177370622217102_);" cx="881.61" cy="412.11" r="30.15"/>
	
		<linearGradient id="SVGID_00000012473548743426678110000006763800520307082904_" gradientUnits="userSpaceOnUse" x1="791.95" y1="362.1365" x2="834.564" y2="362.1365">
		<stop  offset="4.504793e-07" style="stop-color:#284660"/>
		<stop  offset="1" style="stop-color:#0C222F"/>
	</linearGradient>
	<circle style="fill:url(#SVGID_00000012473548743426678110000006763800520307082904_);" cx="813.26" cy="362.14" r="21.31"/>
	
		<linearGradient id="SVGID_00000098184477221924507350000008901080175940452229_" gradientUnits="userSpaceOnUse" x1="724.4496" y1="337.2256" x2="759.8558" y2="337.2256">
		<stop  offset="4.504793e-07" style="stop-color:#284660"/>
		<stop  offset="1" style="stop-color:#0C222F"/>
	</linearGradient>
	<circle style="fill:url(#SVGID_00000098184477221924507350000008901080175940452229_);" cx="742.15" cy="337.23" r="17.7"/>
	
		<linearGradient id="SVGID_00000021825881184914061710000007145058894480639888_" gradientUnits="userSpaceOnUse" x1="663.957" y1="191.2069" x2="816.987" y2="191.2069">
		<stop  offset="1.916933e-07" style="stop-color:#E77260"/>
		<stop  offset="1" style="stop-color:#AC1B09"/>
	</linearGradient>
	<path style="fill:url(#SVGID_00000021825881184914061710000007145058894480639888_);" d="M740.48,99.01
		c-42.26,0-76.52,34.25-76.52,76.51c0,35.49,24.17,65.33,56.94,73.98l19.58,33.9l19.57-33.9c32.77-8.65,56.94-38.49,56.94-73.98
		C816.99,133.26,782.74,99.01,740.48,99.01z M741.12,212.6c0,0-52.61-38.3-31.38-59.53c7.77-7.77,20.37-7.77,28.15,0
		c1.29,1.3,2.37,2.73,3.23,4.25c0.86-1.52,1.94-2.95,3.23-4.25c7.77-7.77,20.37-7.77,28.15,0
		C793.72,174.27,741.12,212.6,741.12,212.6z"/>
	
		<linearGradient id="SVGID_00000076565171806684297800000017991870298217774780_" gradientUnits="userSpaceOnUse" x1="193.7755" y1="139.3681" x2="193.7755" y2="900.988">
		<stop  offset="4.504793e-07" style="stop-color:#284660"/>
		<stop  offset="1" style="stop-color:#0C222F"/>
	</linearGradient>
	<path style="fill:url(#SVGID_00000076565171806684297800000017991870298217774780_);" d="M198.91,849.19
		c1.26-1.08,1.89-2.58,1.89-4.51c0-1.92-0.63-3.41-1.89-4.48c-1.26-1.07-3.13-1.6-5.61-1.6h-6.55v12.21h6.55
		C195.78,850.81,197.65,850.27,198.91,849.19z"/>
	
		<linearGradient id="SVGID_00000121997087960692585390000013821230116558291890_" gradientUnits="userSpaceOnUse" x1="468.506" y1="139.3681" x2="468.506" y2="900.988">
		<stop  offset="4.504793e-07" style="stop-color:#284660"/>
		<stop  offset="1" style="stop-color:#0C222F"/>
	</linearGradient>
	<path style="fill:url(#SVGID_00000121997087960692585390000013821230116558291890_);" d="M473.64,849.19
		c1.26-1.08,1.89-2.58,1.89-4.51c0-1.92-0.63-3.41-1.89-4.48c-1.26-1.07-3.13-1.6-5.61-1.6h-6.55v12.21h6.55
		C470.51,850.81,472.38,850.27,473.64,849.19z"/>
	
		<linearGradient id="SVGID_00000044894088105975442610000010219886495811175566_" gradientUnits="userSpaceOnUse" x1="352.113" y1="139.3681" x2="352.113" y2="900.988">
		<stop  offset="4.504793e-07" style="stop-color:#284660"/>
		<stop  offset="1" style="stop-color:#0C222F"/>
	</linearGradient>
	<polygon style="fill:url(#SVGID_00000044894088105975442610000010219886495811175566_);" points="352.12,840.21 346.6,853.59 
		357.63,853.59 	"/>
	
		<linearGradient id="SVGID_00000060735930133555293840000016423026007579497145_" gradientUnits="userSpaceOnUse" x1="779.8119" y1="139.3681" x2="779.8119" y2="900.988">
		<stop  offset="4.504793e-07" style="stop-color:#284660"/>
		<stop  offset="1" style="stop-color:#0C222F"/>
	</linearGradient>
	<path style="fill:url(#SVGID_00000060735930133555293840000016423026007579497145_);" d="M787.7,841.38
		c-1-1.01-2.17-1.79-3.51-2.33c-1.35-0.54-2.82-0.81-4.43-0.81c-1.54,0-2.98,0.27-4.32,0.81c-1.34,0.54-2.51,1.32-3.48,2.33
		c-0.98,1.01-1.76,2.22-2.33,3.62c-0.58,1.4-0.86,2.95-0.86,4.66c0,1.68,0.29,3.22,0.86,4.64c0.58,1.41,1.35,2.63,2.33,3.64
		c0.98,1.01,2.14,1.79,3.48,2.33s2.8,0.81,4.38,0.81c1.57,0,3.02-0.27,4.35-0.81c1.33-0.54,2.5-1.32,3.51-2.33
		c1.01-1.01,1.8-2.23,2.36-3.64c0.56-1.42,0.84-2.96,0.84-4.64c0-1.71-0.28-3.27-0.84-4.66C789.47,843.6,788.69,842.4,787.7,841.38z
		"/>
	
		<linearGradient id="SVGID_00000005231922392763457310000011706705608204006547_" gradientUnits="userSpaceOnUse" x1="593.7416" y1="139.3681" x2="593.7416" y2="900.988">
		<stop  offset="4.504793e-07" style="stop-color:#284660"/>
		<stop  offset="1" style="stop-color:#0C222F"/>
	</linearGradient>
	<path style="fill:url(#SVGID_00000005231922392763457310000011706705608204006547_);" d="M601.63,841.38
		c-1-1.01-2.17-1.79-3.51-2.33c-1.35-0.54-2.82-0.81-4.43-0.81c-1.54,0-2.98,0.27-4.32,0.81c-1.34,0.54-2.51,1.32-3.48,2.33
		c-0.98,1.01-1.76,2.22-2.33,3.62c-0.58,1.4-0.86,2.95-0.86,4.66c0,1.68,0.29,3.22,0.86,4.64c0.58,1.41,1.35,2.63,2.33,3.64
		c0.98,1.01,2.14,1.79,3.48,2.33s2.8,0.81,4.38,0.81c1.57,0,3.02-0.27,4.35-0.81c1.33-0.54,2.5-1.32,3.51-2.33
		c1.01-1.01,1.8-2.23,2.36-3.64c0.56-1.42,0.84-2.96,0.84-4.64c0-1.71-0.28-3.27-0.84-4.66C603.4,843.6,602.62,842.4,601.63,841.38z
		"/>
	
		<linearGradient id="SVGID_00000168836782697858749390000002354777285304780417_" gradientUnits="userSpaceOnUse" x1="510.8973" y1="139.3681" x2="510.8973" y2="900.988">
		<stop  offset="4.504793e-07" style="stop-color:#284660"/>
		<stop  offset="1" style="stop-color:#0C222F"/>
	</linearGradient>
	<path style="fill:url(#SVGID_00000168836782697858749390000002354777285304780417_);" d="M862.34,798.33H608.5l-12.21-11.81
		c53.14-15.21,101.83-43.72,142-83.89c62.32-62.32,96.64-145.18,96.64-233.31c0-9.94-8.06-18-18-18s-18,8.06-18,18
		c0,162.09-131.87,293.95-293.95,293.95c-38.46,0-75.85-7.31-111.12-21.72c-9.2-3.76-19.71,0.65-23.47,9.85
		c-3.76,9.2,0.65,19.71,9.85,23.47c13.96,5.71,28.22,10.4,42.72,14.11l-9.66,9.35H159.45c-8.86,0-16.04,7.18-16.04,16.04v70.57
		c0,8.86,7.18,16.04,16.04,16.04h702.89c8.86,0,16.04-7.18,16.04-16.04v-70.57C878.38,805.52,871.2,798.33,862.34,798.33z
		 M313.19,820.63h9.12l-9.59,7.7h-6.6L313.19,820.63z M200.9,868l-7.01-10.12c-0.04,0-0.08,0-0.12,0h-7.02V868h-9.01v-36.68h16.03
		c3.32,0,6.18,0.53,8.59,1.6c2.41,1.07,4.26,2.6,5.55,4.61c1.29,2.01,1.94,4.39,1.94,7.15c0,2.73-0.65,5.08-1.94,7.07
		c-1.28,1.97-3.11,3.48-5.49,4.53L210.6,868H200.9z M249.01,868h-28.66v-36.68h27.93v7.18h-19.02v7.44h16.82v6.86h-16.82v8.02h19.75
		V868z M285.74,862.89c-1.15,1.73-2.89,3.12-5.21,4.17c-2.32,1.05-5.25,1.57-8.78,1.57c-2.93,0-5.76-0.38-8.49-1.15
		c-2.72-0.77-4.91-1.76-6.55-2.99l2.99-6.76c1.57,1.12,3.43,2.03,5.58,2.72c2.15,0.7,4.32,1.05,6.52,1.05c1.61,0,2.91-0.16,3.9-0.47
		c1-0.31,1.72-0.75,2.17-1.31c0.45-0.56,0.68-1.19,0.68-1.89c0-0.94-0.38-1.69-1.15-2.25c-0.77-0.56-1.77-1.01-3.01-1.36
		c-1.24-0.35-2.61-0.69-4.11-1.02c-1.5-0.33-3.02-0.74-4.56-1.23c-1.54-0.49-2.93-1.12-4.19-1.89c-1.26-0.77-2.27-1.78-3.04-3.04
		c-0.77-1.26-1.15-2.88-1.15-4.87c0-2.1,0.58-4.02,1.76-5.76c1.17-1.75,2.92-3.13,5.24-4.17c2.32-1.03,5.23-1.55,8.72-1.55
		c2.31,0,4.59,0.26,6.86,0.79c2.27,0.52,4.28,1.33,6.03,2.41l-2.78,6.76c-1.71-0.94-3.43-1.65-5.16-2.12c-1.73-0.47-3.4-0.71-5-0.71
		c-1.61,0-2.91,0.18-3.9,0.55c-1,0.37-1.71,0.84-2.15,1.41c-0.44,0.58-0.66,1.23-0.66,1.97c0,0.91,0.38,1.64,1.15,2.2
		c0.77,0.56,1.78,1,3.04,1.34c1.26,0.33,2.64,0.66,4.14,1c1.5,0.33,3,0.73,4.51,1.21c1.5,0.47,2.88,1.09,4.14,1.86
		c1.26,0.77,2.27,1.78,3.04,3.04c0.77,1.26,1.15,2.85,1.15,4.77C287.47,859.25,286.89,861.16,285.74,862.89z M325.67,868H297v-36.68
		h27.93v7.18h-19.02v7.44h16.82v6.86h-16.82v8.02h19.75V868z M363.55,868l-3.14-7.65h-16.6l-3.16,7.65h-9.22l16.3-36.68h8.86
		L372.93,868H363.55z M412.91,851.81c0,5.42-1.48,9.57-4.43,12.47c-2.95,2.9-7.05,4.35-12.29,4.35c-5.27,0-9.39-1.45-12.34-4.35
		c-2.95-2.9-4.43-7.06-4.43-12.47v-20.49h9.01v20.23c0,3.35,0.69,5.78,2.07,7.28c1.38,1.5,3.29,2.25,5.74,2.25
		c2.48,0,4.41-0.75,5.79-2.25c1.38-1.5,2.07-3.93,2.07-7.28v-20.23h8.8V851.81z M511.26,820.63h9.12l-9.59,7.7h-6.6L511.26,820.63z
		 M475.63,868l-7.01-10.12c-0.04,0-0.08,0-0.12,0h-7.02V868h-9.01v-36.68h16.03c3.32,0,6.18,0.53,8.59,1.6
		c2.41,1.07,4.26,2.6,5.55,4.61c1.29,2.01,1.94,4.39,1.94,7.15c0,2.73-0.65,5.08-1.94,7.07c-1.28,1.97-3.11,3.48-5.49,4.53
		l8.17,11.72H475.63z M523.74,868h-28.66v-36.68H523v7.18h-19.02v7.44h16.82v6.86h-16.82v8.02h19.75V868z M553.66,868h-8.91
		l-15.82-36.68h9.75l10.84,25.59l11.01-25.59h8.91L553.66,868z M612.37,857.23c-1,2.32-2.4,4.34-4.22,6.05
		c-1.82,1.71-3.94,3.03-6.37,3.96c-2.43,0.92-5.09,1.39-7.99,1.39s-5.59-0.46-8.07-1.39c-2.48-0.92-4.62-2.25-6.42-3.98
		c-1.8-1.73-3.2-3.75-4.19-6.05c-1-2.31-1.49-4.82-1.49-7.55c0-2.76,0.5-5.28,1.49-7.57c1-2.29,2.39-4.3,4.19-6.03
		c1.8-1.73,3.93-3.06,6.39-3.98s5.16-1.39,8.1-1.39c2.9,0,5.56,0.46,7.99,1.39c2.43,0.93,4.54,2.25,6.34,3.96
		c1.8,1.71,3.2,3.72,4.22,6.03c1.01,2.31,1.52,4.84,1.52,7.6C613.86,852.39,613.37,854.91,612.37,857.23z M651.17,868h-27.14v-36.68
		h9.01v29.4h18.13V868z M692.51,851.81c0,5.42-1.48,9.57-4.43,12.47c-2.95,2.9-7.05,4.35-12.29,4.35c-5.28,0-9.39-1.45-12.34-4.35
		c-2.95-2.9-4.43-7.06-4.43-12.47v-20.49h9.01v20.23c0,3.35,0.69,5.78,2.07,7.28s3.29,2.25,5.74,2.25c2.48,0,4.41-0.75,5.79-2.25
		c1.38-1.5,2.07-3.93,2.07-7.28v-20.23h8.8V851.81z M732.13,838.6H720.6V868h-9.07v-29.4h-11.58v-7.28h32.17V838.6z M749.58,868
		h-9.01v-36.68h9.01V868z M798.44,857.23c-1,2.32-2.4,4.34-4.22,6.05c-1.82,1.71-3.94,3.03-6.37,3.96
		c-2.43,0.92-5.09,1.39-7.99,1.39s-5.59-0.46-8.07-1.39c-2.48-0.92-4.62-2.25-6.42-3.98c-1.8-1.73-3.2-3.75-4.19-6.05
		c-1-2.31-1.49-4.82-1.49-7.55c0-2.76,0.5-5.28,1.49-7.57c1-2.29,2.39-4.3,4.19-6.03c1.8-1.73,3.93-3.06,6.39-3.98
		s5.16-1.39,8.1-1.39c2.9,0,5.56,0.46,7.99,1.39c2.43,0.93,4.54,2.25,6.34,3.96c1.8,1.71,3.2,3.72,4.22,6.03
		c1.01,2.31,1.52,4.84,1.52,7.6C799.93,852.39,799.44,854.91,798.44,857.23z M844.05,868h-7.44l-17.66-21.58V868h-8.86v-36.68h7.39
		l17.71,21.59v-21.59h8.86V868z"/>
	
		<linearGradient id="SVGID_00000130623745183482854080000012600323596438078393_" gradientUnits="userSpaceOnUse" x1="402.5587" y1="139.3681" x2="402.5587" y2="900.988">
		<stop  offset="4.504793e-07" style="stop-color:#284660"/>
		<stop  offset="1" style="stop-color:#0C222F"/>
	</linearGradient>
	<path style="fill:url(#SVGID_00000130623745183482854080000012600323596438078393_);" d="M193.02,522.63c9.94,0,18-8.06,18-18
		v-35.31c0-162.09,131.87-293.95,293.95-293.95c34.7,0,68.66,5.98,100.93,17.78c9.34,3.41,19.67-1.39,23.09-10.73
		c3.41-9.34-1.39-19.67-10.73-23.09c-36.25-13.25-74.37-19.97-113.29-19.97c-88.13,0-170.99,34.32-233.31,96.64
		s-96.64,145.18-96.64,233.31v35.31C175.02,514.57,183.08,522.63,193.02,522.63z"/>
	
		<linearGradient id="SVGID_00000021815213307953011880000005218725846338874281_" gradientUnits="userSpaceOnUse" x1="690.3585" y1="139.3681" x2="690.3585" y2="900.9881">
		<stop  offset="4.504793e-07" style="stop-color:#284660"/>
		<stop  offset="1" style="stop-color:#0C222F"/>
	</linearGradient>
	<path style="fill:url(#SVGID_00000021815213307953011880000005218725846338874281_);" d="M624.25,243.65
		c-9.88,1.08-17.02,9.96-15.94,19.84c0.16,1.51,4.24,37.35,23.16,77.95c25.6,54.91,66.28,92.46,117.65,108.58
		c1.79,0.56,3.61,0.83,5.39,0.83c7.66,0,14.76-4.92,17.17-12.62c2.98-9.49-2.3-19.59-11.79-22.56
		c-41.74-13.1-73.82-42.87-95.34-88.48c-16.6-35.18-20.39-67.03-20.46-67.62C643.01,249.7,634.13,242.57,624.25,243.65z"/>
	
		<linearGradient id="SVGID_00000168812753311961907120000004203485080882653340_" gradientUnits="userSpaceOnUse" x1="204.7744" y1="139.3681" x2="204.7744" y2="900.988">
		<stop  offset="4.504793e-07" style="stop-color:#284660"/>
		<stop  offset="1" style="stop-color:#0C222F"/>
	</linearGradient>
	<path style="fill:url(#SVGID_00000168812753311961907120000004203485080882653340_);" d="M152.61,649.12
		c0-37.37,30.4-67.76,67.77-67.76c15.71,0,31.01,5.49,43.1,15.47c7.67,6.33,19.01,5.24,25.34-2.43c6.33-7.67,5.24-19.01-2.43-25.34
		c-18.52-15.28-41.96-23.7-66.01-23.7c-57.22,0-103.77,46.55-103.77,103.76c0,9.94,8.06,18,18,18S152.61,659.07,152.61,649.12z"/>
</g>
</svg>
